<svg fill="none" viewBox="0 0 24 24" xmlns="http://www.w3.org/2000/svg"><path clip-rule="evenodd" d="m2 0h5c1.10457 0 2 .89543 2 2v5c0 1.10457-.89543 2-2 2h-5c-1.10457 0-2-.89543-2-2v-5c0-1.10457.89543-2 2-2zm0 11h5c1.10457 0 2 .8954 2 2v9c0 1.1046-.89543 2-2 2h-5c-1.10457 0-2-.8954-2-2v-9c0-1.1046.89543-2 2-2zm11-11h9c1.1046 0 2 .89543 2 2v11c0 1.1046-.8954 2-2 2h-9c-1.1046 0-2-.8954-2-2v-11c0-1.10457.8954-2 2-2zm0 17h9c1.1046 0 2 .8954 2 2v3c0 1.1046-.8954 2-2 2h-9c-1.1046 0-2-.8954-2-2v-3c0-1.1046.8954-2 2-2z" fill="#758ca3" fill-rule="evenodd"/></svg>